<?xml version="1.0"?>
<svg xmlns="http://www.w3.org/2000/svg" viewBox="0 0 64 64" width="512px" height="512px" class=""><g><g id="outline"><path d="M59,47H55.023L52,32.893V29.139l3.961-13.865A1,1,0,0,0,55,14H51a1,1,0,0,0-.961.726L46.246,28H33a3,3,0,0,0,0,6H45.191L48.34,48.693,40.85,51H31.236l4.211-2.1a1,1,0,0,0,0-1.79l-3.66-1.83L26.018,30.852l.753-8.288,2.448,3.061A1,1,0,0,0,30,26h5a1,1,0,0,0,.857-.485l6-10A1,1,0,0,0,41,14H37a1,1,0,0,0-.832.445l-3.257,4.886-4.143-4.972A1,1,0,0,0,28,14H11a1,1,0,0,0-.848.47l-5,8a1,1,0,0,0-.026,1.015l5,9a1,1,0,0,0,.638.487,1.011,1.011,0,0,0,.791-.14L13.4,31.6l-1.322,7.839L4.4,45.2a1,1,0,0,0-.232,1.355L7.132,51H3a1,1,0,0,0-1,1v5a1,1,0,0,0,1,1H4v3a1,1,0,0,0,1,1H8a1,1,0,0,0,.895-.553L10.618,58H50.334l.688,3.21A1,1,0,0,0,52,62h5a1,1,0,0,0,.978-1.21L57.38,58H61a1,1,0,0,0,.976-1.217l-2-9A1,1,0,0,0,59,47ZM51.754,16h1.92L50.246,28h-1.92ZM32,31a1,1,0,0,1,1-1H50v2H33A1,1,0,0,1,32,31ZM13.6,40.8a1,1,0,0,0,.386-.634l3.375-20A1,1,0,0,0,16.375,19H13a1,1,0,0,0-.832.445l-2,3a1,1,0,0,0-.087.949l2.672,6.235-1.4.937L7.161,23.03,11.554,16H27.532l4.7,5.641a1.016,1.016,0,0,0,.821.358,1,1,0,0,0,.779-.444L37.535,16h1.7l-4.8,8H30.48l-3.7-4.625A1,1,0,0,0,25,19.909l-1,11a1.011,1.011,0,0,0,.067.462l6,15a1,1,0,0,0,.482.524L32.764,48l-3.317,1.658L21.9,34.553A1,1,0,0,0,21,34H19a1,1,0,0,0-.97.758l-1.9,7.586L9.5,46.132a1,1,0,0,0-.484.672l-.527,2.633-2.136-3.2ZM12.132,23.1l1.4-2.1h1.657l-1.119,6.632ZM10.891,47.643l6.6-3.775a1,1,0,0,0,.474-.626L19.781,36h.6l7.5,15H10.22ZM7.382,60H6V58H8.382ZM10,56H4V53H41a1.007,1.007,0,0,0,.294-.044l7.467-2.3L49.906,56Zm42.809,4L47.237,34h2.954l5.572,26Zm4.143-4-1.5-7H58.2l1.555,7Z" data-original="#000000" class="active-path" data-old_color="#E1DDDD" fill="#FFFFFF"/><path d="M24,12a5,5,0,1,0-5-5A5.006,5.006,0,0,0,24,12Zm0-8a3,3,0,1,1-3,3A3,3,0,0,1,24,4Z" data-original="#000000" class="active-path" data-old_color="#E1DDDD" fill="#FFFFFF"/></g></g> </svg>
